<svg width="1280" height="720" xmlns="http://www.w3.org/2000/svg" xmlns:xlink="http://www.w3.org/1999/xlink" overflow="hidden"><defs><clipPath id="clip0"><rect x="0" y="0" width="1280" height="720"/></clipPath></defs><g clip-path="url(#clip0)"><rect x="0" y="0" width="1280" height="720" fill="#FFFFFF"/><path d="M1013.26 549.976 938.696 500.73 939.43 499.618 1013.99 548.863ZM937.971 504.247 933.5 496.5 942.38 497.571Z"/><text font-family="Calibri,Calibri_MSFontService,sans-serif" font-weight="700" font-size="27" transform="translate(79.1766 95)">List of scenarios</text><path d="M54.5001 124.334C54.5001 119.455 58.455 115.5 63.3336 115.5L246.667 115.5C251.545 115.5 255.5 119.455 255.5 124.334L255.5 159.667C255.5 164.545 251.545 168.5 246.667 168.5L63.3336 168.5C58.455 168.5 54.5001 164.545 54.5001 159.667Z" stroke="#2F528F" stroke-width="1.33333" stroke-miterlimit="8" fill="#DAE3F3" fill-rule="evenodd"/><text font-family="Calibri,Calibri_MSFontService,sans-serif" font-weight="400" font-size="24" transform="translate(268.686 149)">0</text><text font-family="Calibri,Calibri_MSFontService,sans-serif" font-weight="400" font-size="24" transform="translate(280.852 149)">% water</text><path d="M61 141C61 130.507 69.5066 122 80 122 90.4934 122 99 130.507 99 141 99 151.493 90.4934 160 80 160 69.5066 160 61 151.493 61 141Z" stroke="#000000" stroke-width="2" stroke-miterlimit="8" fill="#FFFFFF" fill-rule="evenodd"/><text font-family="Calibri,Calibri_MSFontService,sans-serif" font-weight="400" font-size="24" transform="translate(75.12 149)">L</text><path d="M111 141C111 130.507 119.507 122 130 122 140.493 122 149 130.507 149 141 149 151.493 140.493 160 130 160 119.507 160 111 151.493 111 141Z" stroke="#000000" stroke-width="2" stroke-miterlimit="8" fill="#FFFFFF" fill-rule="evenodd"/><text font-family="Calibri,Calibri_MSFontService,sans-serif" font-weight="400" font-size="24" transform="translate(124.81 149)">L</text><path d="M161 141C161 130.507 169.283 122 179.5 122 189.717 122 198 130.507 198 141 198 151.493 189.717 160 179.5 160 169.283 160 161 151.493 161 141Z" stroke="#000000" stroke-width="2" stroke-miterlimit="8" fill="#FFFFFF" fill-rule="evenodd"/><text font-family="Calibri,Calibri_MSFontService,sans-serif" font-weight="400" font-size="24" transform="translate(174.5 149)">L</text><path d="M210 141C210 130.507 218.507 122 229 122 239.493 122 248 130.507 248 141 248 151.493 239.493 160 229 160 218.507 160 210 151.493 210 141Z" stroke="#000000" stroke-width="2" stroke-miterlimit="8" fill="#FFFFFF" fill-rule="evenodd"/><text font-family="Calibri,Calibri_MSFontService,sans-serif" font-weight="400" font-size="24" transform="translate(224.19 149)">L</text><path d="M54.5001 181.334C54.5001 176.455 58.455 172.5 63.3336 172.5L246.667 172.5C251.545 172.5 255.5 176.455 255.5 181.334L255.5 216.666C255.5 221.545 251.545 225.5 246.667 225.5L63.3336 225.5C58.455 225.5 54.5001 221.545 54.5001 216.666Z" stroke="#2F528F" stroke-width="1.33333" stroke-miterlimit="8" fill="#DAE3F3" fill-rule="evenodd"/><path d="M62 198C62 187.507 70.5066 179 81 179 91.4934 179 100 187.507 100 198 100 208.493 91.4934 217 81 217 70.5066 217 62 208.493 62 198Z" stroke="#000000" stroke-width="2" stroke-miterlimit="8" fill="#4472C4" fill-rule="evenodd"/><text font-family="Calibri,Calibri_MSFontService,sans-serif" font-weight="400" font-size="24" transform="translate(70.2228 205)">W</text><path d="M112 198C112 187.507 120.283 179 130.5 179 140.717 179 149 187.507 149 198 149 208.493 140.717 217 130.5 217 120.283 217 112 208.493 112 198Z" stroke="#000000" stroke-width="2" stroke-miterlimit="8" fill="#FFFFFF" fill-rule="evenodd"/><text font-family="Calibri,Calibri_MSFontService,sans-serif" font-weight="400" font-size="24" transform="translate(125.496 205)">L</text><path d="M161 198C161 187.507 169.507 179 180 179 190.493 179 199 187.507 199 198 199 208.493 190.493 217 180 217 169.507 217 161 208.493 161 198Z" stroke="#000000" stroke-width="2" stroke-miterlimit="8" fill="#FFFFFF" fill-rule="evenodd"/><text font-family="Calibri,Calibri_MSFontService,sans-serif" font-weight="400" font-size="24" transform="translate(175.186 205)">L</text><path d="M211 198C211 187.507 219.507 179 230 179 240.493 179 249 187.507 249 198 249 208.493 240.493 217 230 217 219.507 217 211 208.493 211 198Z" stroke="#000000" stroke-width="2" stroke-miterlimit="8" fill="#FFFFFF" fill-rule="evenodd"/><text font-family="Calibri,Calibri_MSFontService,sans-serif" font-weight="400" font-size="24" transform="translate(224.876 205)">L</text><text font-family="Calibri,Calibri_MSFontService,sans-serif" font-weight="400" font-size="24" transform="translate(265.515 205)">25% water</text><path d="M54.5001 238.334C54.5001 233.455 58.455 229.5 63.3336 229.5L246.667 229.5C251.545 229.5 255.5 233.455 255.5 238.334L255.5 273.667C255.5 278.545 251.545 282.5 246.667 282.5L63.3336 282.5C58.455 282.5 54.5001 278.545 54.5001 273.667Z" stroke="#2F528F" stroke-width="1.33333" stroke-miterlimit="8" fill="#DAE3F3" fill-rule="evenodd"/><path d="M62 255C62 244.507 70.5066 236 81 236 91.4934 236 100 244.507 100 255 100 265.493 91.4934 274 81 274 70.5066 274 62 265.493 62 255Z" stroke="#000000" stroke-width="2" stroke-miterlimit="8" fill="#4472C4" fill-rule="evenodd"/><text font-family="Calibri,Calibri_MSFontService,sans-serif" font-weight="400" font-size="24" transform="translate(70.2228 263)">W</text><path d="M112 255C112 244.507 120.283 236 130.5 236 140.717 236 149 244.507 149 255 149 265.493 140.717 274 130.5 274 120.283 274 112 265.493 112 255Z" stroke="#000000" stroke-width="2" stroke-miterlimit="8" fill="#4472C4" fill-rule="evenodd"/><text font-family="Calibri,Calibri_MSFontService,sans-serif" font-weight="400" font-size="24" transform="translate(119.913 263)">W</text><path d="M161 255C161 244.507 169.507 236 180 236 190.493 236 199 244.507 199 255 199 265.493 190.493 274 180 274 169.507 274 161 265.493 161 255Z" stroke="#000000" stroke-width="2" stroke-miterlimit="8" fill="#FFFFFF" fill-rule="evenodd"/><text font-family="Calibri,Calibri_MSFontService,sans-serif" font-weight="400" font-size="24" transform="translate(175.186 263)">L</text><path d="M211 255C211 244.507 219.507 236 230 236 240.493 236 249 244.507 249 255 249 265.493 240.493 274 230 274 219.507 274 211 265.493 211 255Z" stroke="#000000" stroke-width="2" stroke-miterlimit="8" fill="#FFFFFF" fill-rule="evenodd"/><text font-family="Calibri,Calibri_MSFontService,sans-serif" font-weight="400" font-size="24" transform="translate(224.876 263)">L</text><text font-family="Calibri,Calibri_MSFontService,sans-serif" font-weight="400" font-size="24" transform="translate(266.258 262)">50% water</text><path d="M55.5001 296.334C55.5001 291.455 59.455 287.5 64.3336 287.5L247.667 287.5C252.545 287.5 256.5 291.455 256.5 296.334L256.5 331.667C256.5 336.545 252.545 340.5 247.667 340.5L64.3336 340.5C59.455 340.5 55.5001 336.545 55.5001 331.667Z" stroke="#2F528F" stroke-width="1.33333" stroke-miterlimit="8" fill="#DAE3F3" fill-rule="evenodd"/><path d="M62 314C62 303.507 70.5066 295 81 295 91.4934 295 100 303.507 100 314 100 324.493 91.4934 333 81 333 70.5066 333 62 324.493 62 314Z" stroke="#000000" stroke-width="2" stroke-miterlimit="8" fill="#4472C4" fill-rule="evenodd"/><text font-family="Calibri,Calibri_MSFontService,sans-serif" font-weight="400" font-size="24" transform="translate(70.2228 321)">W</text><path d="M112 314C112 303.507 120.283 295 130.5 295 140.717 295 149 303.507 149 314 149 324.493 140.717 333 130.5 333 120.283 333 112 324.493 112 314Z" stroke="#000000" stroke-width="2" stroke-miterlimit="8" fill="#4472C4" fill-rule="evenodd"/><text font-family="Calibri,Calibri_MSFontService,sans-serif" font-weight="400" font-size="24" transform="translate(119.913 321)">W</text><path d="M161 314C161 303.507 169.507 295 180 295 190.493 295 199 303.507 199 314 199 324.493 190.493 333 180 333 169.507 333 161 324.493 161 314Z" stroke="#000000" stroke-width="2" stroke-miterlimit="8" fill="#4472C4" fill-rule="evenodd"/><text font-family="Calibri,Calibri_MSFontService,sans-serif" font-weight="400" font-size="24" transform="translate(169.603 321)">W</text><path d="M211 314C211 303.507 219.507 295 230 295 240.493 295 249 303.507 249 314 249 324.493 240.493 333 230 333 219.507 333 211 324.493 211 314Z" stroke="#000000" stroke-width="2" stroke-miterlimit="8" fill="#FFFFFF" fill-rule="evenodd"/><text font-family="Calibri,Calibri_MSFontService,sans-serif" font-weight="400" font-size="24" transform="translate(224.876 321)">L</text><text font-family="Calibri,Calibri_MSFontService,sans-serif" font-weight="400" font-size="24" transform="translate(265.515 322)">75% water</text><path d="M54.5001 354.334C54.5001 349.455 58.455 345.5 63.3336 345.5L246.667 345.5C251.545 345.5 255.5 349.455 255.5 354.334L255.5 389.667C255.5 394.545 251.545 398.5 246.667 398.5L63.3336 398.5C58.455 398.5 54.5001 394.545 54.5001 389.667Z" stroke="#2F528F" stroke-width="1.33333" stroke-miterlimit="8" fill="#DAE3F3" fill-rule="evenodd"/><path d="M62 371.5C62 361.283 70.5066 353 81 353 91.4934 353 100 361.283 100 371.5 100 381.717 91.4934 390 81 390 70.5066 390 62 381.717 62 371.5Z" stroke="#000000" stroke-width="2" stroke-miterlimit="8" fill="#4472C4" fill-rule="evenodd"/><text font-family="Calibri,Calibri_MSFontService,sans-serif" font-weight="400" font-size="24" transform="translate(69.9498 379)">W</text><path d="M111 371.5C111 361.283 119.507 353 130 353 140.493 353 149 361.283 149 371.5 149 381.717 140.493 390 130 390 119.507 390 111 381.717 111 371.5Z" stroke="#000000" stroke-width="2" stroke-miterlimit="8" fill="#4472C4" fill-rule="evenodd"/><text font-family="Calibri,Calibri_MSFontService,sans-serif" font-weight="400" font-size="24" transform="translate(119.64 379)">W</text><path d="M161 371.5C161 361.283 169.507 353 180 353 190.493 353 199 361.283 199 371.5 199 381.717 190.493 390 180 390 169.507 390 161 381.717 161 371.5Z" stroke="#000000" stroke-width="2" stroke-miterlimit="8" fill="#4472C4" fill-rule="evenodd"/><text font-family="Calibri,Calibri_MSFontService,sans-serif" font-weight="400" font-size="24" transform="translate(169.33 379)">W</text><path d="M211 371.5C211 361.283 219.507 353 230 353 240.493 353 249 361.283 249 371.5 249 381.717 240.493 390 230 390 219.507 390 211 381.717 211 371.5Z" stroke="#000000" stroke-width="2" stroke-miterlimit="8" fill="#4472C4" fill-rule="evenodd"/><text font-family="Calibri,Calibri_MSFontService,sans-serif" font-weight="400" font-size="24" transform="translate(219.019 379)">W</text><text font-family="Calibri,Calibri_MSFontService,sans-serif" font-weight="400" font-size="24" transform="translate(265.302 378)">100% water</text><text font-family="Calibri,Calibri_MSFontService,sans-serif" font-weight="700" font-size="27" transform="translate(528.642 95)">Probability: counting all the possible ways an event occurs</text><path d="M720.5 149.167C720.5 144.38 724.38 140.5 729.167 140.5L855.833 140.5C860.62 140.5 864.5 144.38 864.5 149.167L864.5 183.833C864.5 188.62 860.62 192.5 855.833 192.5L729.167 192.5C724.38 192.5 720.5 188.62 720.5 183.833Z" stroke="#2F528F" stroke-width="1.33333" stroke-miterlimit="8" fill="#FFF2CC" fill-rule="evenodd"/><path d="M727 166C727 155.507 735.507 147 746 147 756.493 147 765 155.507 765 166 765 176.493 756.493 185 746 185 735.507 185 727 176.493 727 166Z" stroke="#000000" stroke-width="2" stroke-miterlimit="8" fill="#4472C4" fill-rule="evenodd"/><text font-family="Calibri,Calibri_MSFontService,sans-serif" font-weight="400" font-size="24" transform="translate(735.554 174)">W</text><text font-family="Calibri,Calibri_MSFontService,sans-serif" font-weight="400" font-size="24" transform="translate(880.851 173)">Observation</text><path d="M772 166C772 155.507 780.507 147 791 147 801.493 147 810 155.507 810 166 810 176.493 801.493 185 791 185 780.507 185 772 176.493 772 166Z" stroke="#000000" stroke-width="2" stroke-miterlimit="8" fill="#4472C4" fill-rule="evenodd"/><text font-family="Calibri,Calibri_MSFontService,sans-serif" font-weight="400" font-size="24" transform="translate(780.64 174)">W</text><path d="M817 166C817 155.507 825.507 147 836 147 846.493 147 855 155.507 855 166 855 176.493 846.493 185 836 185 825.507 185 817 176.493 817 166Z" stroke="#000000" stroke-width="2" stroke-miterlimit="8" fill="#FFFFFF" fill-rule="evenodd"/><text font-family="Calibri,Calibri_MSFontService,sans-serif" font-weight="400" font-size="24" transform="translate(830.928 174)">L</text><text font-family="Calibri,Calibri_MSFontService,sans-serif" font-weight="400" font-size="24" transform="translate(595.643 256)">If reality is</text><path d="M1043 574C1043 563.507 1051.51 555 1062 555 1072.49 555 1081 563.507 1081 574 1081 584.493 1072.49 593 1062 593 1051.51 593 1043 584.493 1043 574Z" stroke="#000000" stroke-width="2" stroke-miterlimit="8" fill="#FFFFFF" fill-rule="evenodd"/><text font-family="Calibri,Calibri_MSFontService,sans-serif" font-weight="400" font-size="24" transform="translate(1057.13 582)">L</text><path d="M1093 574C1093 563.507 1101.51 555 1112 555 1122.49 555 1131 563.507 1131 574 1131 584.493 1122.49 593 1112 593 1101.51 593 1093 584.493 1093 574Z" stroke="#000000" stroke-width="2" stroke-miterlimit="8" fill="#FFFFFF" fill-rule="evenodd"/><text font-family="Calibri,Calibri_MSFontService,sans-serif" font-weight="400" font-size="24" transform="translate(1106.82 582)">L</text><path d="M1143 574C1143 563.507 1151.28 555 1161.5 555 1171.72 555 1180 563.507 1180 574 1180 584.493 1171.72 593 1161.5 593 1151.28 593 1143 584.493 1143 574Z" stroke="#000000" stroke-width="2" stroke-miterlimit="8" fill="#FFFFFF" fill-rule="evenodd"/><text font-family="Calibri,Calibri_MSFontService,sans-serif" font-weight="400" font-size="24" transform="translate(1156.51 582)">L</text><path d="M715.5 231.334C715.5 226.455 719.455 222.5 724.334 222.5L906.667 222.5C911.545 222.5 915.5 226.455 915.5 231.334L915.5 266.667C915.5 271.545 911.545 275.5 906.667 275.5L724.334 275.5C719.455 275.5 715.5 271.545 715.5 266.667Z" stroke="#2F528F" stroke-width="1.33333" stroke-miterlimit="8" fill="#DAE3F3" fill-rule="evenodd"/><path d="M722 248C722 237.507 730.507 229 741 229 751.493 229 760 237.507 760 248 760 258.493 751.493 267 741 267 730.507 267 722 258.493 722 248Z" stroke="#000000" stroke-width="2" stroke-miterlimit="8" fill="#4472C4" fill-rule="evenodd"/><text font-family="Calibri,Calibri_MSFontService,sans-serif" font-weight="400" font-size="24" transform="translate(730.628 255)">W</text><path d="M772 248C772 237.507 780.507 229 791 229 801.493 229 810 237.507 810 248 810 258.493 801.493 267 791 267 780.507 267 772 258.493 772 248Z" stroke="#000000" stroke-width="2" stroke-miterlimit="8" fill="#FFFFFF" fill-rule="evenodd"/><text font-family="Calibri,Calibri_MSFontService,sans-serif" font-weight="400" font-size="24" transform="translate(785.901 255)">L</text><path d="M822 248C822 237.507 830.507 229 841 229 851.493 229 860 237.507 860 248 860 258.493 851.493 267 841 267 830.507 267 822 258.493 822 248Z" stroke="#000000" stroke-width="2" stroke-miterlimit="8" fill="#FFFFFF" fill-rule="evenodd"/><text font-family="Calibri,Calibri_MSFontService,sans-serif" font-weight="400" font-size="24" transform="translate(835.591 255)">L</text><path d="M871 248C871 237.507 879.507 229 890 229 900.493 229 909 237.507 909 248 909 258.493 900.493 267 890 267 879.507 267 871 258.493 871 248Z" stroke="#000000" stroke-width="2" stroke-miterlimit="8" fill="#FFFFFF" fill-rule="evenodd"/><text font-family="Calibri,Calibri_MSFontService,sans-serif" font-weight="400" font-size="24" transform="translate(885.28 255)">L</text><text font-family="Calibri,Calibri_MSFontService,sans-serif" font-weight="400" font-size="24" transform="translate(925.92 255)">25% water</text><path d="M914 470.5C914 460.283 922.283 452 932.5 452 942.717 452 951 460.283 951 470.5 951 480.717 942.717 489 932.5 489 922.283 489 914 480.717 914 470.5Z" stroke="#000000" stroke-width="2" stroke-miterlimit="8" fill="#4472C4" fill-rule="evenodd"/><text font-family="Calibri,Calibri_MSFontService,sans-serif" font-weight="400" font-size="24" transform="translate(921.931 478)">W</text><path d="M963 470.5C963 460.283 971.507 452 982 452 992.493 452 1001 460.283 1001 470.5 1001 480.717 992.493 489 982 489 971.507 489 963 480.717 963 470.5Z" stroke="#000000" stroke-width="2" stroke-miterlimit="8" fill="#FFFFFF" fill-rule="evenodd"/><text font-family="Calibri,Calibri_MSFontService,sans-serif" font-weight="400" font-size="24" transform="translate(977.204 478)">L</text><path d="M1013 470.5C1013 460.283 1021.51 452 1032 452 1042.49 452 1051 460.283 1051 470.5 1051 480.717 1042.49 489 1032 489 1021.51 489 1013 480.717 1013 470.5Z" stroke="#000000" stroke-width="2" stroke-miterlimit="8" fill="#FFFFFF" fill-rule="evenodd"/><text font-family="Calibri,Calibri_MSFontService,sans-serif" font-weight="400" font-size="24" transform="translate(1026.89 478)">L</text><path d="M1063 470.5C1063 460.283 1071.51 452 1082 452 1092.49 452 1101 460.283 1101 470.5 1101 480.717 1092.49 489 1082 489 1071.51 489 1063 480.717 1063 470.5Z" stroke="#000000" stroke-width="2" stroke-miterlimit="8" fill="#FFFFFF" fill-rule="evenodd"/><text font-family="Calibri,Calibri_MSFontService,sans-serif" font-weight="400" font-size="24" transform="translate(1076.58 478)">L</text><path d="M1012.52 549.967 989.84 503.778 991.037 503.19 1013.72 549.379ZM987.436 506.444 987.5 497.5 994.617 502.918Z" fill="#A6A6A6"/><path d="M0.610409-0.26804 20.8399 45.8007 19.6191 46.3368-0.610409 0.26804ZM23.3559 43.2397 22.9099 52.1728 16.031 46.4561Z" fill="#A6A6A6" transform="matrix(1 0 0 -1 1013.5 549.673)"/><path d="M0.40543-0.529217 63.7029 47.9625 62.892 49.021-0.40543 0.529217ZM64.6716 44.5056 68.5896 52.546 59.8064 50.8562Z" fill="#A6A6A6" transform="matrix(1 0 0 -1 1013.5 549.046)"/><path d="M828 366C828 355.507 836.283 347 846.5 347 856.717 347 865 355.507 865 366 865 376.493 856.717 385 846.5 385 836.283 385 828 376.493 828 366Z" stroke="#000000" stroke-width="2" stroke-miterlimit="8" fill="#4472C4" fill-rule="evenodd"/><text font-family="Calibri,Calibri_MSFontService,sans-serif" font-weight="400" font-size="24" transform="translate(835.927 373)">W</text><path d="M877 366C877 355.507 885.507 347 896 347 906.493 347 915 355.507 915 366 915 376.493 906.493 385 896 385 885.507 385 877 376.493 877 366Z" stroke="#000000" stroke-width="2" stroke-miterlimit="8" fill="#FFFFFF" fill-rule="evenodd"/><text font-family="Calibri,Calibri_MSFontService,sans-serif" font-weight="400" font-size="24" transform="translate(891.201 373)">L</text><path d="M927 366C927 355.507 935.507 347 946 347 956.493 347 965 355.507 965 366 965 376.493 956.493 385 946 385 935.507 385 927 376.493 927 366Z" stroke="#000000" stroke-width="2" stroke-miterlimit="8" fill="#FFFFFF" fill-rule="evenodd"/><text font-family="Calibri,Calibri_MSFontService,sans-serif" font-weight="400" font-size="24" transform="translate(940.891 373)">L</text><path d="M977 366C977 355.507 985.507 347 996 347 1006.49 347 1015 355.507 1015 366 1015 376.493 1006.49 385 996 385 985.507 385 977 376.493 977 366Z" stroke="#000000" stroke-width="2" stroke-miterlimit="8" fill="#FFFFFF" fill-rule="evenodd"/><text font-family="Calibri,Calibri_MSFontService,sans-serif" font-weight="400" font-size="24" transform="translate(990.58 373)">L</text><path d="M926.525 444.083 903.883 398.762 905.076 398.166 927.718 443.487ZM901.497 401.444 901.5 392.5 908.654 397.869Z"/><path d="M0.610409-0.26804 20.8399 45.8007 19.6191 46.3368-0.610409 0.26804ZM23.3559 43.2397 22.9099 52.1728 16.031 46.4561Z" transform="matrix(1 0 0 -1 927.5 444.673)"/><path d="M0.40543-0.529217 63.7029 47.9625 62.892 49.021-0.40543 0.529217ZM64.6716 44.5056 68.5896 52.546 59.8064 50.8562Z" transform="matrix(1 0 0 -1 927.5 445.046)"/><path d="M994 574C994 563.507 1002.28 555 1012.5 555 1022.72 555 1031 563.507 1031 574 1031 584.493 1022.72 593 1012.5 593 1002.28 593 994 584.493 994 574Z" stroke="#000000" stroke-width="2" stroke-miterlimit="8" fill="#4472C4" fill-rule="evenodd"/><text font-family="Calibri,Calibri_MSFontService,sans-serif" font-weight="400" font-size="24" transform="translate(1001.86 582)">W</text><path d="M927.258 444.976 852.696 395.73 853.43 394.618 927.993 443.863ZM851.971 399.247 847.5 391.5 856.38 392.571Z" fill="#A6A6A6"/><text font-family="Calibri,Calibri_MSFontService,sans-serif" font-weight="400" font-size="24" transform="translate(840.348 637)">3 pathways out of 4</text><text font-family="Calibri,Calibri_MSFontService,sans-serif" font-weight="400" font-size="16" transform="translate(1032.36 630)">3</text><text font-family="Calibri,Calibri_MSFontService,sans-serif" font-weight="400" font-size="24" transform="translate(1046.03 637)">= 64 pathways</text><path d="M623.5 397.334C623.5 392.455 627.455 388.5 632.334 388.5L757.667 388.5C762.545 388.5 766.5 392.455 766.5 397.334L766.5 432.667C766.5 437.545 762.545 441.5 757.667 441.5L632.334 441.5C627.455 441.5 623.5 437.545 623.5 432.667Z" stroke="#2F528F" stroke-width="1.33333" stroke-miterlimit="8" fill="#FFF2CC" fill-rule="evenodd"/><path d="M630 414C630 403.507 638.507 395 649 395 659.493 395 668 403.507 668 414 668 424.493 659.493 433 649 433 638.507 433 630 424.493 630 414Z" stroke="#000000" stroke-width="2" stroke-miterlimit="8" fill="#4472C4" fill-rule="evenodd"/><text font-family="Calibri,Calibri_MSFontService,sans-serif" font-weight="400" font-size="24" transform="translate(638.139 422)">W</text><path d="M675 414C675 403.507 683.507 395 694 395 704.493 395 713 403.507 713 414 713 424.493 704.493 433 694 433 683.507 433 675 424.493 675 414Z" stroke="#000000" stroke-width="2" stroke-miterlimit="8" fill="#4472C4" fill-rule="evenodd"/><text font-family="Calibri,Calibri_MSFontService,sans-serif" font-weight="400" font-size="24" transform="translate(683.225 422)">W</text><path d="M720 414C720 403.507 728.283 395 738.5 395 748.717 395 757 403.507 757 414 757 424.493 748.717 433 738.5 433 728.283 433 720 424.493 720 414Z" stroke="#000000" stroke-width="2" stroke-miterlimit="8" fill="#FFFFFF" fill-rule="evenodd"/><text font-family="Calibri,Calibri_MSFontService,sans-serif" font-weight="400" font-size="24" transform="translate(733.513 422)">L</text><text font-family="Calibri,Calibri_MSFontService,sans-serif" font-weight="400" font-size="24" transform="translate(510.882 485)">0</text><text font-family="Calibri,Calibri_MSFontService,sans-serif" font-weight="400" font-size="24" transform="translate(523.048 485)">% water</text><text font-family="Calibri,Calibri_MSFontService,sans-serif" font-weight="400" font-size="24" transform="translate(500.019 516)">25% water</text><text font-family="Calibri,Calibri_MSFontService,sans-serif" font-weight="400" font-size="24" transform="translate(498.656 546)">50% water</text><text font-family="Calibri,Calibri_MSFontService,sans-serif" font-weight="400" font-size="24" transform="translate(498.169 578)">75% water</text><text font-family="Calibri,Calibri_MSFontService,sans-serif" font-weight="400" font-size="24" transform="translate(486.805 607)">100% water</text><text font-family="Calibri,Calibri_MSFontService,sans-serif" font-weight="400" font-size="24" transform="translate(631.314 486)">0</text><text font-family="Cambria Math,Cambria Math_MSFontService,sans-serif" font-weight="400" font-size="24" transform="translate(648.981 486)">×</text><text font-family="Calibri,Calibri_MSFontService,sans-serif" font-weight="400" font-size="24" transform="translate(671.648 486)">0</text><text font-family="Cambria Math,Cambria Math_MSFontService,sans-serif" font-weight="400" font-size="24" transform="translate(689.314 486)">×</text><text font-family="Calibri,Calibri_MSFontService,sans-serif" font-weight="400" font-size="24" transform="translate(711.981 486)">4 = 0</text><text font-family="Calibri,Calibri_MSFontService,sans-serif" font-weight="400" font-size="24" transform="translate(630.472 517)">1</text><text font-family="Cambria Math,Cambria Math_MSFontService,sans-serif" font-weight="400" font-size="24" transform="translate(648.138 517)">×</text><text font-family="Calibri,Calibri_MSFontService,sans-serif" font-weight="400" font-size="24" transform="translate(670.805 517)">1</text><text font-family="Cambria Math,Cambria Math_MSFontService,sans-serif" font-weight="400" font-size="24" transform="translate(688.472 517)">×</text><text font-family="Calibri,Calibri_MSFontService,sans-serif" font-weight="400" font-size="24" transform="translate(711.138 517)">3 = 3</text><text font-family="Calibri,Calibri_MSFontService,sans-serif" font-weight="400" font-size="24" transform="translate(630.472 547)">2</text><text font-family="Cambria Math,Cambria Math_MSFontService,sans-serif" font-weight="400" font-size="24" transform="translate(648.138 547)">×</text><text font-family="Calibri,Calibri_MSFontService,sans-serif" font-weight="400" font-size="24" transform="translate(670.805 547)">2</text><text font-family="Cambria Math,Cambria Math_MSFontService,sans-serif" font-weight="400" font-size="24" transform="translate(688.472 547)">×</text><text font-family="Calibri,Calibri_MSFontService,sans-serif" font-weight="400" font-size="24" transform="translate(711.138 547)">2</text><text font-family="Calibri,Calibri_MSFontService,sans-serif" font-weight="400" font-size="24" transform="translate(728.805 547)">= 8</text><text font-family="Calibri,Calibri_MSFontService,sans-serif" font-weight="400" font-size="24" transform="translate(631.137 578)">3</text><text font-family="Cambria Math,Cambria Math_MSFontService,sans-serif" font-weight="400" font-size="24" transform="translate(648.804 578)">×</text><text font-family="Calibri,Calibri_MSFontService,sans-serif" font-weight="400" font-size="24" transform="translate(671.471 578)">3</text><text font-family="Cambria Math,Cambria Math_MSFontService,sans-serif" font-weight="400" font-size="24" transform="translate(689.137 578)">×</text><text font-family="Calibri,Calibri_MSFontService,sans-serif" font-weight="400" font-size="24" transform="translate(711.804 578)">1 = 9</text><text font-family="Calibri,Calibri_MSFontService,sans-serif" font-weight="400" font-size="24" transform="translate(630.472 608)">4</text><text font-family="Cambria Math,Cambria Math_MSFontService,sans-serif" font-weight="400" font-size="24" transform="translate(648.138 608)">×</text><text font-family="Calibri,Calibri_MSFontService,sans-serif" font-weight="400" font-size="24" transform="translate(670.805 608)">4</text><text font-family="Cambria Math,Cambria Math_MSFontService,sans-serif" font-weight="400" font-size="24" transform="translate(688.472 608)">×</text><text font-family="Calibri,Calibri_MSFontService,sans-serif" font-weight="400" font-size="24" transform="translate(711.138 608)">0</text><text font-family="Calibri,Calibri_MSFontService,sans-serif" font-weight="400" font-size="24" transform="translate(728.805 608)">= 0</text></g></svg>